<?xml version="1.0" encoding="iso-8859-1"?>
<!-- Generator: Adobe Illustrator 19.0.0, SVG Export Plug-In . SVG Version: 6.00 Build 0)  -->
<svg xmlns="http://www.w3.org/2000/svg" xmlns:xlink="http://www.w3.org/1999/xlink" version="1.1" id="Layer_1" x="0px" y="0px" viewBox="0 0 469.333 469.333" style="enable-background:new 0 0 469.333 469.333;" xml:space="preserve" width="512px" height="512px">
<g>
	<g>
		<g>
			<path d="M467.065,366.76c-0.313-0.396-30.938-39.802-40.896-71.302c-2.354-7.5-5.313-18.063-8.708-30.167     c-16.188-57.906-30.917-107.177-47.25-123.5c-17.698-17.698-86.105-29.508-114.208-33.711V42.667     C256.002,19.135,236.856,0,213.336,0H42.669C19.148,0,0.002,19.135,0.002,42.667v298.667C0.002,364.865,19.148,384,42.669,384     h170.667c4.595,0,9.047-1.025,13.413-2.527c9.292,8.62,19.811,15.178,30.837,21.861c21.729,13.188,44.229,26.823,63.854,60.688     c1.917,3.292,5.417,5.313,9.229,5.313c101.5,0,137.604-91.26,137.958-92.188C469.961,373.656,469.377,369.708,467.065,366.76z      M256.002,197.083l33.813,13.531c1.646,5.792,4.458,15.167,7.271,22.479c-1.292,2.281-2.417,4.823-3.604,7.531     c-1.938,4.417-4.042,9.25-7,13c-10.681-7.612-21.523-23.746-30.479-40.895V197.083z M213.336,21.333     c11.771,0,21.333,9.573,21.333,21.333v20.254c-20.87-4.253-37.336-20.721-41.589-41.587H213.336z M21.336,42.667     c0-11.76,9.563-21.333,21.333-21.333h20.255c-4.253,20.866-20.719,37.335-41.589,41.587V42.667z M42.669,362.667     c-11.771,0-21.333-9.573-21.333-21.333v-20.254c20.87,4.253,37.336,20.721,41.589,41.587H42.669z M84.257,362.667     c-4.723-32.574-30.348-58.199-62.922-62.922V84.255c32.574-4.723,58.199-30.348,62.922-62.922h87.49     c4.723,32.574,30.348,58.199,62.922,62.922v86.303c-13.319-19.533-35.76-42.628-56.104-46.767     c-9.874-2.064-18.668,0.387-25.466,6.833c-7.997-1.582-16.313-2.625-25.096-2.625c-51.042,0-85.333,25.719-85.333,64     s34.292,64,85.333,64c16.418,0,31.574-3.02,44.65-8.548c10.673,19.016,18.089,38.531,19.392,52.225     c0.292,2.979,0.417,5.802,0.542,8.594c0.184,3.986,0.389,8.021,0.934,12.301c-11.762,11.51-19.283,26.137-21.647,42.095H84.257z      M161.3,229.129c-9.756,3.611-21.047,5.538-33.298,5.538c-31.854,0-64-13.198-64-42.667c0-33.771,42.786-45.936,77.401-41.865     C133.821,174.854,145.618,206.029,161.3,229.129z M193.212,362.667c1.341-6.372,4.047-12.318,7.629-17.806     c2.496,5.326,5.857,11.224,10.267,17.806H193.212z M336.627,447.875c-21.708-34.719-47.25-50.208-67.979-62.781     c-14.542-8.813-27.083-16.427-36.021-28.698c-17.583-24.167-18.083-35.167-18.729-49.104c-0.146-3.135-0.292-6.302-0.604-9.635     c-2.063-21.583-15.333-52.875-33.833-79.708c-16.458-23.854-27.188-56.479-11.917-71.74c1.271-1.24,2.896-2.24,6.771-1.521     c16.708,3.406,43.667,34.49,50.458,51.302c8.167,20.229,30.271,68.542,59.146,80.531c3.292,1.354,7.042,0.99,10-0.979     c10.667-7.104,15.542-18.229,19.104-26.344c1.021-2.333,2.438-5.531,2.396-5.76c4.354-3.021,5.833-8.792,3.458-13.542     c-3.25-6.49-8.25-23.865-9.917-30.01c-0.875-3.24-3.208-5.875-6.333-7.125l-46.625-18.65v-44.411     c38.773,6,89.074,17.135,99.125,27.176c13.708,13.708,31.292,76.583,41.792,114.156c3.458,12.375,6.5,23.177,8.917,30.844     c8.938,28.333,31.375,60.458,40.5,72.833C437.94,391.75,406.169,444.979,336.627,447.875z" fill="#ee4323"/>
			<path d="M128.002,277.333c-11.771,0-21.333,9.573-21.333,21.333S116.231,320,128.002,320s21.333-9.573,21.333-21.333     S139.773,277.333,128.002,277.333z" fill="#ee4323"/>
			<path d="M128.002,106.667c11.771,0,21.333-9.573,21.333-21.333c0-11.76-9.563-21.333-21.333-21.333s-21.333,9.573-21.333,21.333     C106.669,97.094,116.231,106.667,128.002,106.667z" fill="#ee4323"/>
		</g>
	</g>
</g>
<g>
</g>
<g>
</g>
<g>
</g>
<g>
</g>
<g>
</g>
<g>
</g>
<g>
</g>
<g>
</g>
<g>
</g>
<g>
</g>
<g>
</g>
<g>
</g>
<g>
</g>
<g>
</g>
<g>
</g>
</svg>
